:SAMPLES-PER-SECOND 30
:FRAME-RANGE 1-4244
:FULLY-SPECIFIED
:DEGREES
1725
root  -45.2295 18.2894 -27.0578 119.904 -78.3473 -37.6836
RightUpLeg  -109.051 -15.2797 -15.4781
RightLeg  114.525 -19.7776 34.6977
RightFoot  -40.4759 4.11331 16.8012
RightToes  -3.31784e-009 0 -3.6325e-017
Spine  9.24558 4.02042 -13.8613
Spine1  -11.422 4.98741 -5.59292
HEad  -40.9286 33.8367 -40.3415
LeftShoulder1  1.37084 -4.49613 -9.80491
LeftArm  -5.94451 -68.1299 -55.2632
LeftForeArm  30.2442 0.106365 -14.7434
LeftHand  1.02006 9.82562 26.3303
RightShoulder  10.8376 32.3805 23.5713
RightArm  -18.9438 31.8353 11.2541
RightForeArm  24.7641 -0.73557 12.6849
RightHand  -1.20483 -1.43727 -34.5963
LeftUpLeg  -48.0533 26.0089 -1.04869
LeftLeg  65.9713 -4.0615 -9.21573
LeftFoot  -25.5696 -4.55218 -36.5006
LeftToes  1.0277e-010 -6.71454e-011 3.04227e-011
1726
root  -45.5286 18.4786 -27.0426 99.5963 -77.4923 -16.4038
RightUpLeg  -104.127 -14.3683 -19.5516
RightLeg  112.893 -18.4014 34.8167
RightFoot  -44.3206 3.27869 12.0767
RightToes  -3.31784e-009 0 -3.6325e-017
Spine  11.4205 3.31399 -13.8436
Spine1  -11.7096 3.73535 -4.6942
HEad  -40.5193 33.3293 -40.2575
LeftShoulder1  1.38968 -4.65232 -9.69697
LeftArm  -3.57875 -69.8253 -58.0629
LeftForeArm  31.1894 0.448881 -14.7941
LeftHand  1.01682 9.79321 26.4318
RightShoulder  11.2736 31.9363 25.2645
RightArm  -19.6035 30.0188 9.68334
RightForeArm  24.2563 1.24193 12.5569
RightHand  -1.14059 -1.68223 -34.9022
LeftUpLeg  -57.1618 24.335 -1.73542
LeftLeg  76.4604 -3.0251 -13.1985
LeftFoot  -26.9116 -4.87243 -35.7023
LeftToes  1.0277e-010 -6.71454e-011 3.04227e-011
1727
root  -45.7555 18.5671 -27.0602 79.4942 -74.8875 3.18576
RightUpLeg  -98.5853 -13.5013 -21.97
RightLeg  113.728 -16.976 31.8263
RightFoot  -47.7969 3.38035 11.2463
RightToes  -3.31784e-009 0 -3.6325e-017
Spine  15.0253 2.43988 -13.5297
Spine1  -12.5224 2.13672 -3.23221
HEad  -38.8541 33.7992 -39.9599
LeftShoulder1  1.4548 -5.10673 -9.53877
LeftArm  -2.02775 -70.7537 -60.4357
LeftForeArm  32.4617 1.17129 -14.7907
LeftHand  0.993699 9.68747 26.4663
RightShoulder  11.3924 30.846 26.7078
RightArm  -20.1936 29.6082 9.06666
RightForeArm  24.7955 1.41561 12.3774
RightHand  -1.16863 -1.60015 -34.98
LeftUpLeg  -65.243 21.5297 -2.5398
LeftLeg  87.431 -0.468977 -18.732
LeftFoot  -28.1846 -4.90508 -33.3722
LeftToes  1.0277e-010 -6.71454e-011 3.04227e-011
1728
root  -45.9635 18.6139 -27.0961 67.0816 -71.6115 12.6896
RightUpLeg  -92.7726 -11.7807 -22.669
RightLeg  116.19 -15.7024 27.4134
RightFoot  -48.7749 3.39325 10.9924
RightToes  -3.31784e-009 0 -3.6325e-017
Spine  19.9879 2.00629 -12.0875
Spine1  -13.2852 1.31716 -3.4004
HEad  -37.4543 34.4656 -39.636
LeftShoulder1  1.52141 -5.34942 -9.86159
LeftArm  1.40777 -71.4881 -63.4452
LeftForeArm  32.7303 1.60863 -15.0402
LeftHand  0.933126 9.46965 26.21
RightShoulder  11.5208 30.0487 27.9404
RightArm  -19.1317 28.0642 8.69876
RightForeArm  23.8766 3.13056 12.4703
RightHand  -1.16807 -1.60809 -35.0338
LeftUpLeg  -70.7947 19.6101 -3.65689
LeftLeg  97.1125 3.08966 -20.1495
LeftFoot  -28.1632 -5.15473 -34.9628
LeftToes  1.0277e-010 -6.71454e-011 3.04227e-011
1729
root  -46.1529 18.5592 -27.1036 60.1989 -68.8914 15.2649
RightUpLeg  -87.0493 -9.22813 -21.7314
RightLeg  119.029 -14.2589 22.8872
RightFoot  -49.2042 3.78458 12.0007
RightToes  -3.31784e-009 0 -3.6325e-017
Spine  24.7139 1.88181 -10.1922
Spine1  -13.1729 1.18519 -4.39127
HEad  -37.4071 35.2539 -40.455
LeftShoulder1  1.58557 -5.65171 -10.0108
LeftArm  3.92661 -71.5104 -65.7597
LeftForeArm  33.0712 1.61826 -15.1812
LeftHand  0.922688 9.42077 26.2307
RightShoulder  11.5503 29.3222 28.8355
RightArm  -18.7998 27.357 8.56183
RightForeArm  23.9967 3.1981 12.4822
RightHand  -1.16104 -1.65498 -35.2489
LeftUpLeg  -73.9235 18.1255 -4.96619
LeftLeg  105.557 4.12025 -13.6966
LeftFoot  -26.8758 -4.90444 -35.9925
LeftToes  1.0277e-010 -6.71454e-011 3.04227e-011
